<?xml version="1.0" encoding="UTF-8"?>
<svg id="Layer_2" data-name="Layer 2" xmlns="http://www.w3.org/2000/svg" viewBox="0 0 338.76 169.16">
  <defs>
    <style>
      .cls-1 {
        fill: blue;
        stroke-width: 0px;
      }
    </style>
  </defs>
  <g id="Layer_1-2" data-name="Layer 1">
    <g>
      <path class="cls-1" d="M39.36,150.49c5.15-45.5,15.42-90.34,30.32-133.63l-10.88,1.42c24.16,41.3,43.46,85.2,57.53,130.94,2.25,7.3,13.74,4.19,11.48-3.17-14.36-46.68-34.07-91.63-58.73-133.78-2.71-4.63-9.26-3.3-10.88,1.42-15.26,44.35-25.47,90.2-30.74,136.8-.86,7.6,11.05,7.54,11.91,0h0Z"/>
      <path class="cls-1" d="M5.7,110.26c36.89-3.33,73.31-10.48,108.66-21.56,7.29-2.28,4.18-13.78-3.17-11.48-34.32,10.75-69.66,17.9-105.49,21.13-7.57.68-7.64,12.6,0,11.91h0Z"/>
      <path class="cls-1" d="M145.9,15.54c-.2,43.66,4.04,87.25,12.53,130.07,1.49,7.51,12.97,4.33,11.48-3.17-8.29-41.8-12.3-84.3-12.11-126.91.03-7.66-11.87-7.67-11.91,0h0Z"/>
      <path class="cls-1" d="M124.46,27.99c18.59-4.1,37.49-6.31,56.53-6.47,8-.07,17.19-.23,24.18,4.31,5.3,3.44,8.2,9.36,8.86,15.54,1.57,14.81-8.73,26.58-20.71,33.73-14.84,8.86-32.3,11.78-48.47,17.31-4.99,1.7-6.3,10.51,0,11.48,41.45,6.41,79.8,28.92,104.84,62.71,4.51,6.09,14.85.16,10.28-6.01-26.84-36.22-67.29-61.28-111.96-68.18v11.48c27.03-9.24,62.9-14.3,75.14-44.41,4.64-11.43,3.93-25.64-3.38-35.82-8.99-12.53-24.51-14.17-38.79-14.05-20.07.17-40.1,2.58-59.69,6.89-7.48,1.65-4.31,13.13,3.17,11.48h0Z"/>
      <path class="cls-1" d="M246.59,17.76c29.44.68,58.8-1.46,87.87-6.18,7.54-1.23,4.34-12.7-3.17-11.48-28,4.55-56.35,6.41-84.7,5.76-7.66-.18-7.66,11.73,0,11.91h0Z"/>
      <path class="cls-1" d="M282.68,15.56c3.52,44.96,5.71,90.02,6.57,135.11.15,7.65,12.05,7.68,11.91,0-.86-45.09-3.05-90.15-6.57-135.11-.59-7.59-12.51-7.65-11.91,0h0Z"/>
    </g>
  </g>
</svg>