<?xml version="1.0" encoding="UTF-8"?>
<svg id="Layer_2" data-name="Layer 2" xmlns="http://www.w3.org/2000/svg" viewBox="0 0 523.35 174.25">
  <defs>
    <style>
      .cls-1 {
        fill: blue;
        stroke-width: 0px;
      }
    </style>
  </defs>
  <g id="Layer_1-2" data-name="Layer 1">
    <g>
      <path class="cls-1" d="M33.35,46.36c-5.94,21.17-20.07,38.48-29.29,58.16-2.06,4.39-4.82,9.38-3.86,14.39,1.05,5.47,5.7,8.92,9.55,12.52,9.48,8.87,18.96,17.74,28.44,26.6,5.59,5.23,14.03-3.17,8.42-8.42-8.3-7.76-16.59-15.52-24.89-23.28-2.13-2-4.27-3.99-6.4-5.99-1.86-1.75-3.52-2.64-2.99-5.21.92-4.53,4.37-9.52,6.58-13.56,9.3-17.07,20.62-33.12,25.93-52.06,2.07-7.39-9.41-10.54-11.48-3.17h0Z"/>
      <path class="cls-1" d="M111.9,47.83c.53,35.6,1.05,71.2,1.58,106.8.11,7.65,12.02,7.68,11.91,0-.53-35.6-1.05-71.2-1.58-106.8-.11-7.65-12.02-7.68-11.91,0h0Z"/>
      <path class="cls-1" d="M100.57,53.53c16.66-8.77,35.26-13.02,53.9-14.82,8.37-.81,17.27-1.66,25.47.73,6.8,1.98,14.1,7.47,14.48,15.16s-7.09,13.03-12.73,16.85c-7.32,4.98-14.98,9.5-22.83,13.6-16.34,8.54-33.6,14.98-51.46,19.52-7.47,1.9-4.29,13.04,3.17,11.48,17.27-3.61,34.76-5.8,52.39-6.43,8.79-.31,17.64-.35,26.42.17,5.82.35,12.03,1.26,17.21,4.09,15.23,8.33-.14,22.99-9.15,28.96-12.56,8.32-26.58,14.06-41.32,17.14-16.85,3.52-34.37,3.22-51.1-.78-7.45-1.78-10.63,9.7-3.17,11.48,34.94,8.35,73.19,1.9,102.95-18.47,12.85-8.8,27.66-25.23,16.33-41.16-9.33-13.13-28.48-13.32-42.9-13.51-23.79-.31-47.56,2.15-70.84,7.03l3.17,11.48c16.54-4.2,32.62-10.07,47.98-17.53,7.71-3.74,15.21-7.9,22.47-12.44,6.34-3.97,13.1-8.11,18.12-13.74,10.15-11.4,8.89-27.19-2.61-37.21-12.5-10.89-30.26-9.67-45.63-7.95-19.61,2.2-38.78,6.84-56.32,16.07-6.78,3.57-.77,13.85,6.01,10.28h0Z"/>
      <path class="cls-1" d="M243.63,150.13c3.9-43.49,10.41-86.69,19.46-129.4l-9.95,2.63c8.58,7.67,13.31,19.59,18.29,29.75,5.53,11.27,10.62,22.74,15.23,34.42,9.04,22.9,16.3,46.46,21.85,70.44,1.72,7.46,13.21,4.3,11.48-3.17-5.82-25.17-13.53-49.87-23.2-73.82-4.74-11.75-9.88-23.33-15.48-34.69s-10.54-23.11-19.75-31.34c-3.13-2.79-8.97-2.01-9.95,2.63-9.27,43.75-15.9,88.03-19.89,132.57-.68,7.63,11.23,7.58,11.91,0h0Z"/>
      <path class="cls-1" d="M222.16,91.38h85.74c7.66,0,7.67-11.91,0-11.91h-85.74c-7.66,0-7.67,11.91,0,11.91h0Z"/>
      <path class="cls-1" d="M386.05,19.1c-9.32-12.89-27.41-14.82-40.59-6.62-14.8,9.2-22.9,27.4-26.54,43.81-4.02,18.08-2.62,37.43,6.59,53.75,7.82,13.85,21.21,25.36,37.03,28.63,17.23,3.56,36.35-1.71,47.66-15.62,4.79-5.9-3.58-14.37-8.42-8.42-16.71,20.55-47.1,15.23-61.99-4.45-16.93-22.36-13.6-56.72,2.56-78.7,6.89-9.38,24.37-18.91,33.43-6.38,4.45,6.15,14.78.22,10.28-6.01h0Z"/>
      <path class="cls-1" d="M427.44,5.73c-2.76,50.25-.92,100.66,5.51,150.57.41,3.21,2.44,5.92,5.95,5.95,2.9.03,6.36-2.76,5.95-5.95-6.42-49.92-8.27-100.32-5.51-150.57.42-7.66-11.49-7.63-11.91,0h0Z"/>
      <path class="cls-1" d="M494.28,11.39c-22.74,27.01-45.01,54.41-66.82,82.18-4.68,5.96,3.69,14.44,8.42,8.42,21.81-27.77,44.08-55.17,66.82-82.18,4.9-5.83-3.48-14.29-8.42-8.42h0Z"/>
      <path class="cls-1" d="M419.48,96.08c35.63,11.01,67.89,30.96,93.75,57.82,5.33,5.53,13.74-2.9,8.42-8.42-27.27-28.31-61.46-49.28-99.01-60.88-7.34-2.27-10.48,9.22-3.17,11.48h0Z"/>
    </g>
  </g>
</svg>