<?xml version="1.0" encoding="UTF-8"?>
<svg id="Layer_2" data-name="Layer 2" xmlns="http://www.w3.org/2000/svg" viewBox="0 0 518.27 145.91">
  <defs>
    <style>
      .cls-1 {
        fill: blue;
        stroke-width: 0px;
      }
    </style>
  </defs>
  <g id="Layer_1-2" data-name="Layer 1">
    <g>
      <path class="cls-1" d="M11.95,140.24c4.52-39.77,13.56-78.92,26.67-116.73h-11.48c10.59,35.96,23.3,71.23,38.55,105.48,1.98,4.45,10.18,3.53,10.88-1.42,5.58-39.53,14-78.6,25.19-116.93,2.15-7.37-9.33-10.52-11.48-3.17-11.19,38.33-19.6,77.4-25.19,116.93,3.63-.47,7.25-.95,10.88-1.42-14.82-33.3-27.05-67.68-37.35-102.64-1.72-5.85-9.59-5.45-11.48,0C13.67,59.2,4.69,99.38.04,140.24c-.86,7.6,11.05,7.54,11.91,0h0Z"/>
      <path class="cls-1" d="M195.35,7.24c-16.99-3.95-34.36-6.28-51.8-6.74-6.15-.16-16.77-2-21.77,2.61s-3.23,15.55-3.17,21.73c.17,17.48,1.58,34.9,4.03,52.2,1.21,8.54,2.7,17.04,4.47,25.48.85,4.06,1.77,8.11,2.76,12.15.9,3.68,1.83,7.47,5.54,9.26s8.26.91,12.13.79c4.93-.15,9.86-.29,14.79-.44,10.52-.31,21.04-.62,31.56-.94,7.64-.23,7.68-12.13,0-11.91-9.86.29-19.72.59-29.58.88-4.6.14-9.2.27-13.81.41-2.27.07-5.75-.48-7.89.23-2.44-.38-2.62.06-.56,1.33l-.46-1.86c.03-2.28-1.26-5.22-1.76-7.46-.56-2.49-1.1-4.99-1.61-7.5-.9-4.38-1.72-8.78-2.47-13.19-1.56-9.24-2.76-18.54-3.62-27.87s-1.36-18.48-1.54-27.75c-.09-4.47-.1-8.94-.03-13.42.02-1.28.04-2.56.08-3.83.2-1.36-.27-1.02-1.43,1.03,0,.05,6.11-.12,6.7-.12,18.98-.09,37.81,2.1,56.3,6.4,7.46,1.73,10.64-9.74,3.17-11.48h0Z"/>
      <path class="cls-1" d="M117.18,71.29c22.06-1.21,44.19-.29,66.04,3.02,7.5,1.13,10.73-10.34,3.17-11.48-22.93-3.47-46.04-4.71-69.21-3.44-7.62.42-7.67,12.33,0,11.91h0Z"/>
      <path class="cls-1" d="M220.77,14.14c29.22,35.57,57.22,72.12,83.96,109.59,4.41,6.18,14.74.24,10.28-6.01-27.33-38.29-55.96-75.65-85.82-112-4.87-5.92-13.25,2.54-8.42,8.42h0Z"/>
      <path class="cls-1" d="M286.83,5.13c-24.05,35.94-48.16,72.57-60.67,114.39-2.2,7.36,9.29,10.5,11.48,3.17,12.2-40.79,36.02-76.49,59.47-111.54,4.27-6.39-6.04-12.35-10.28-6.01h0Z"/>
      <path class="cls-1" d="M323.26,18.46c24.71,1,49.37-.77,73.72-5.1,7.53-1.34,4.34-12.82-3.17-11.48-23.29,4.14-46.92,5.64-70.55,4.68-7.66-.31-7.65,11.6,0,11.91h0Z"/>
      <path class="cls-1" d="M349.05,11.02c-1.06,36.63-.11,73.28,2.85,109.81.61,7.58,12.53,7.65,11.91,0-2.96-36.53-3.91-73.18-2.85-109.81.22-7.66-11.69-7.66-11.91,0h0Z"/>
      <path class="cls-1" d="M457.2,14.63c8.85,5.7,17.5,11.7,25.9,18.04,4.29,3.24,8.5,6.58,12.64,10,2.15,1.77,4.28,3.57,6.39,5.38.86.74,1.81,1.9,2.81,2.43l1.39,1.23c.71-2.78.52-3.45-.59-2.01-1.76.61-4.16,4.23-5.5,5.59-2.06,2.1-4.12,4.2-6.18,6.29-3.89,3.96-7.79,7.92-11.68,11.89-8.01,8.16-16.03,16.31-24.04,24.47-5.37,5.47,3.04,13.9,8.42,8.42,9.39-9.56,18.78-19.11,28.17-28.67,4.58-4.66,9.16-9.32,13.74-13.98,3.56-3.62,9.66-7.88,9.58-13.58-.07-5.28-5.56-8.68-9.12-11.71-4.71-4.02-9.52-7.92-14.41-11.72-10.18-7.92-20.69-15.38-31.53-22.36-6.46-4.16-12.44,6.14-6.01,10.28h0Z"/>
    </g>
  </g>
</svg>