<?xml version="1.0" encoding="UTF-8"?>
<svg id="Layer_2" data-name="Layer 2" xmlns="http://www.w3.org/2000/svg" viewBox="0 0 620.05 156.33">
  <defs>
    <style>
      .cls-1 {
        fill: blue;
        stroke-width: 0px;
      }
    </style>
  </defs>
  <g id="Layer_1-2" data-name="Layer 1">
    <g>
      <path class="cls-1" d="M30.88,21.64c-1.11,36.38-8.71,72.6-6.65,109.07.43,7.62,12.34,7.67,11.91,0-2.07-36.47,5.54-72.69,6.65-109.07.23-7.66-11.67-7.66-11.91,0h0Z"/>
      <path class="cls-1" d="M7.36,28.78c33.76-3.77,73.06-1.35,94.05,29.42,4.59,6.74,8,14.14,10.05,22.03,1.79,6.91,3.95,17.22,1.14,24.1-1.57,3.83-6.02,6.03-9.36,8.1-4.14,2.56-8.4,4.91-12.75,7.08-8.26,4.12-16.85,7.49-25.6,10.39-19.76,6.55-40.21,10.7-60.59,14.8-7.51,1.51-4.33,12.99,3.17,11.48,20.66-4.15,41.4-8.36,61.41-15.07,9.7-3.25,19.25-7.09,28.39-11.7,8.26-4.17,19.18-9.1,24.46-17.03s4.1-19.02,2.74-27.86-4.45-17.8-8.81-25.82c-9.02-16.64-23.63-29.11-41.16-36.05C53.31,14.26,29.66,14.39,7.36,16.88c-7.53.84-7.62,12.76,0,11.91h0Z"/>
      <path class="cls-1" d="M146.32,47.69c21.71-12.41,46.08-18.98,71.09-19.15,7.66-.05,7.68-11.96,0-11.91-27.07.19-53.6,7.34-77.1,20.78-6.65,3.8-.66,14.09,6.01,10.28h0Z"/>
      <path class="cls-1" d="M153.06,39.56c-1.67,36.19.94,72.41,7.57,108.02.6,3.21,4.42,4.89,7.32,4.16,22.61-5.72,45.67-8.69,68.99-8.91,7.66-.07,7.68-11.98,0-11.91-24.34.23-48.56,3.37-72.16,9.33l7.32,4.16c-6.44-34.57-8.77-69.73-7.15-104.85.35-7.66-11.55-7.64-11.91,0h0Z"/>
      <path class="cls-1" d="M153.91,92.4c26.59-.53,53.18-1.07,79.77-1.6,7.65-.15,7.68-12.06,0-11.91-26.59.53-53.18,1.07-79.77,1.6-7.65.15-7.68,12.06,0,11.91h0Z"/>
      <path class="cls-1" d="M331.18,29.78c-.39-10.13-6.11-19.21-15.01-24.12-9.47-5.22-20.85-4.46-30.31.34-9.94,5.04-16.83,14.6-19.99,25.13s-4.47,23.97,4.74,31.46c8.2,6.66,19,8.75,29.14,10.44,10.04,1.67,21.19,2.97,29.14,9.96,14.2,12.47,18.44,42.26-2.8,49.7-23.95,8.39-42.73-13.3-54.54-31.08-4.22-6.35-14.54-.4-10.28,6.01,11.1,16.7,25.84,34.84,46.91,38.15,17.94,2.82,38.73-5.5,43.32-24.55,4.85-20.13-5.02-44.36-24.12-53.28-9.45-4.41-19.7-5.41-29.83-7.33-4.95-.94-10.01-2.04-14.57-4.25-1.98-.96-4.83-2.32-6.17-4.16-1.89-2.59-1.35-6.95-1.06-9.95,1.14-12.12,8.06-24.21,20.4-27.58,10.41-2.84,22.67,3.5,23.12,15.11.29,7.64,12.2,7.68,11.91,0h0Z"/>
      <path class="cls-1" d="M371.08,24.9c-.72,33.11-.14,66.23,1.72,99.3.43,7.62,12.34,7.67,11.91,0-1.86-33.07-2.44-66.19-1.72-99.3.17-7.66-11.74-7.66-11.91,0h0Z"/>
      <path class="cls-1" d="M503.18,14.26c-17.82-17.21-45.9-18.92-66.06-4.69-22.14,15.63-27.52,41.9-27.34,67.51.17,24.03,2.63,54.71,27.19,66.82s47.37-6.84,55.74-28.72c2.66-6.94,4.02-14.25,4.95-21.6.51-4.02.86-8.05,1.14-12.1.21-3.04.87-6.7-.13-9.66-2.61-7.75-11.24-6.23-17.69-6.07-9.16.23-18.33.45-27.49.68-7.65.19-7.68,12.1,0,11.91,5.89-.15,11.78-.29,17.67-.44,2.95-.07,5.89-.15,8.84-.22,1.31-.03,2.62-.06,3.93-.1.98-.02,1.96-.05,2.95-.07,2.17.34,2.56.13,1.16-.63l-.81-.58c-.07,1.15-.14,2.3-.21,3.45-.08,1.15-.15,2.31-.24,3.46-.17,2.31-.36,4.62-.61,6.92-.62,5.75-1.62,11.48-3.28,17.03-4.89,16.31-21.77,35.58-40.52,26.13-18.97-9.56-20.24-34.3-20.62-52.8-.4-19.84,1.24-41.68,16.3-56.34,15.55-15.12,40.71-16.97,56.73-1.49,5.51,5.33,13.94-3.08,8.42-8.42h0Z"/>
      <path class="cls-1" d="M520.19,135.53c2.56-38.16,10.29-75.75,22.81-111.88-3.32.88-6.63,1.75-9.95,2.63,27.64,35.51,56.78,70.72,75.89,111.8,2.47,5.3,11.53,2.75,11.09-3-3.08-40.57-6.88-81.07-11.39-121.51-.84-7.53-12.76-7.62-11.91,0,4.51,40.43,8.31,80.94,11.39,121.51l11.09-3c-19.53-41.98-49.5-77.92-77.75-114.21-2.98-3.83-8.65-1.11-9.95,2.63-12.87,37.14-20.61,75.84-23.24,115.05-.51,7.65,11.4,7.62,11.91,0h0Z"/>
    </g>
  </g>
</svg>