<?xml version="1.0" encoding="UTF-8"?>
<svg id="Layer_2" data-name="Layer 2" xmlns="http://www.w3.org/2000/svg" viewBox="0 0 349.21 91.79">
  <defs>
    <style>
      .cls-1 {
        fill: #000;
        stroke-width: 0px;
      }
    </style>
  </defs>
  <g id="Layer_1-2" data-name="Layer 1">
    <g>
      <path class="cls-1" d="M.21,23.66c-.79,21.36.7,42.65,4.25,63.72.43,2.57,3.32,4.33,5.74,4.37,13.34.22,26.64-.5,39.88-2.15,7.5-.93,7.6-12.85,0-11.91-13.24,1.65-26.54,2.36-39.88,2.15l5.74,4.37c-3.37-20.02-4.57-40.28-3.82-60.56.28-7.66-11.62-7.65-11.91,0H.21Z"/>
      <path class="cls-1" d="M62.06,22.03c-.72,18.68,1.61,37.32,6.87,55.26,2.15,7.34,13.64,4.21,11.48-3.17-4.98-16.99-7.12-34.4-6.45-52.09.29-7.66-11.61-7.65-11.91,0h0Z"/>
      <path class="cls-1" d="M86.62,20.41c-.75,18.57-1.3,38.15,1.48,56.59,1.37,9.07,8.7,10.06,16.41,9.47,9.56-.73,19.07-2.1,28.47-3.99,7.51-1.51,4.33-12.99-3.17-11.48s-14.87,2.64-22.4,3.32c-1.93.17-3.87.34-5.8.44-1.8.1-2.43-.53-1.64,1.17-1.34-2.86-.74-7.6-.95-10.76-.96-14.9-1.08-29.84-.48-44.76.31-7.66-11.6-7.65-11.91,0h0Z"/>
      <path class="cls-1" d="M129.6,29.92c6.5,10.72,14.45,20.44,23.73,28.87,5.66,5.14,14.1-3.25,8.42-8.42-8.57-7.79-15.86-16.56-21.87-26.46-3.97-6.54-14.27-.57-10.28,6.01h0Z"/>
      <path class="cls-1" d="M181.02,14.64c-11.57,21.92-24.01,43.36-37.31,64.27-4.12,6.48,6.18,12.46,10.28,6.01,13.3-20.92,25.74-42.35,37.31-64.27,3.57-6.77-6.7-12.8-10.28-6.01h0Z"/>
      <path class="cls-1" d="M215.08,18.78c0,17.59-.26,35.2-.02,52.79.1,7.68,3.79,11.73,11.56,11.8,8.99.08,17.98-.03,26.97-.04,7.66-.01,7.67-11.92,0-11.91-6.99.01-13.98.02-20.97.03-1.6,0-3.41-.25-4.99,0-2.14-.42-2.58-.23-1.32.55.71.87.93.72.67-.45.58-1.02,0-3.69,0-4.98v-5.98c0-13.94.01-27.89.02-41.83,0-7.66-11.9-7.67-11.91,0h0Z"/>
      <path class="cls-1" d="M265.37,18.77c-.66,18.13,1.95,36.21,7.74,53.4,2.43,7.22,13.94,4.12,11.48-3.17-5.49-16.28-7.94-33.06-7.31-50.23.28-7.66-11.63-7.65-11.91,0h0Z"/>
      <path class="cls-1" d="M306.87,77.38c-.43-18.36-.25-36.72.56-55.06l-10.16,4.21c15.98,12.81,29.77,27.95,40.85,45.18,3.12,4.85,11.11,3.09,11.09-3-.05-20.99-.11-41.97-.16-62.96-.02-7.66-11.93-7.67-11.91,0,.05,20.99.11,41.97.16,62.96l11.09-3c-11.61-18.06-25.95-34.16-42.71-47.59-3.99-3.2-9.92-1.27-10.16,4.21-.81,18.35-.99,36.7-.56,55.06.18,7.65,12.09,7.68,11.91,0h0Z"/>
    </g>
  </g>
</svg>