<?xml version="1.0" encoding="UTF-8"?>
<svg id="Layer_2" data-name="Layer 2" xmlns="http://www.w3.org/2000/svg" viewBox="0 0 625.86 156.24">
  <defs>
    <style>
      .cls-1 {
        fill: blue;
        stroke-width: 0px;
      }
    </style>
  </defs>
  <g id="Layer_1-2" data-name="Layer 1">
    <g>
      <path class="cls-1" d="M.11,33.53c7.51,41.21,19.77,81.28,36.3,119.76,2.22,5.17,9.35,2.82,10.88-1.42,8.85-24.49,17.87-48.91,27.06-73.27l-9.95,2.63c19.18,23.6,38.36,47.19,57.53,70.79,3.64,4.48,9.66.29,10.16-4.21,4.78-42.49,5.62-85.33,2.52-127.98-.55-7.6-12.46-7.66-11.91,0,3.1,42.65,2.26,85.49-2.52,127.98l10.16-4.21c-19.18-23.6-38.36-47.19-57.53-70.79-3.1-3.81-8.54-1.11-9.95,2.63-9.19,24.36-18.21,48.79-27.06,73.27l10.88-1.42C30.59,109.8,18.91,70.49,11.59,30.37c-1.37-7.53-12.85-4.34-11.48,3.17H.11Z"/>
      <path class="cls-1" d="M236.56,10.91c-14.82-1.43-29.46-6.91-44.5-5.01-14.55,1.84-24.87,11.29-31.83,23.72-14.03,25.04-15.83,57.15-1.46,82.45,6.34,11.16,15.61,20.78,26.61,27.41,11.64,7.01,26.93,11.85,40.4,7.96s22.95-14.75,29.9-26.04c7.62-12.38,12.27-26.63,13.12-41.15,1.8-30.5-16.19-60.43-45.51-70.46-7.27-2.48-10.39,9.01-3.17,11.48,20.72,7.08,34.97,27.59,36.68,49.13.96,12.12-1.37,24.42-6.34,35.5-4.6,10.22-11.45,20.96-21.17,27-19.77,12.29-45.93-5.47-57.17-21.9-13.64-19.94-14.61-45.9-5.33-67.88,5.18-12.26,13.37-24.18,27.65-25.58,14.05-1.38,28.21,3.94,42.11,5.28,7.62.74,7.57-11.18,0-11.91h0Z"/>
      <path class="cls-1" d="M285.05,24.64c2.15,37.71,5.33,75.36,9.55,112.9.85,7.53,12.76,7.61,11.91,0-4.22-37.54-7.4-75.18-9.55-112.9-.43-7.62-12.34-7.67-11.91,0h0Z"/>
      <path class="cls-1" d="M278.73,24.8c24.94-8.39,62.13-17.75,78.2,10.84,2.78,4.94,4.08,10.72,2.93,16.34-1.73,8.49-9.04,10.25-16.3,12.6-15.94,5.17-31.87,10.35-47.81,15.52-6.63,2.15-5.01,11.05,1.58,11.69,40.34,3.95,78.39,22.93,106.2,52.33,5.28,5.58,13.68-2.85,8.42-8.42-30.08-31.8-71.11-51.56-114.61-55.82l1.58,11.69c9.81-3.18,19.61-6.37,29.42-9.55s19.14-5.54,28.2-9.41c16.18-6.91,18.79-25.81,11.95-40.51-6.43-13.81-20.78-23.78-35.53-26.63-19.5-3.76-38.98,1.65-57.38,7.84-7.23,2.43-4.13,13.93,3.17,11.48h0Z"/>
      <path class="cls-1" d="M404.67,12.64c.08,37.14,2.22,74.23,6.41,111.13.86,7.53,12.77,7.61,11.91,0-4.2-36.9-6.34-73.99-6.41-111.13-.02-7.66-11.92-7.67-11.91,0h0Z"/>
      <path class="cls-1" d="M388.33,19.7c32.54-2.03,71.8-3.91,95.85,22.54,9.74,10.71,14.32,26.16,10.4,40.3-4.52,16.33-20.83,23.62-35.04,30.06-18.43,8.36-38.01,14.09-57.94,17.5-7.54,1.29-4.34,12.76,3.17,11.48,20.12-3.44,39.64-9.36,58.32-17.59,16.82-7.41,34.58-16.1,41.64-34.24,5.97-15.34,3.22-33.87-5.63-47.55-9.34-14.43-24.33-24.07-40.39-29.51-22.57-7.64-46.95-6.36-70.36-4.9-7.61.47-7.66,12.38,0,11.91h0Z"/>
      <path class="cls-1" d="M617.04,31.21c-8.88-19.91-30.56-34.07-52.64-30.72-20.19,3.06-41.02,23.36-36.7,45.18,2.53,12.81,15.76,15.53,26.56,18.1,12.7,3.02,25.91,5.29,38.28,9.51,12.42,4.24,18.54,13.18,20.59,25.91,1.61,10.07,2.44,24.15-8.28,29.46-6.17,3.06-13.7,3.38-20.44,3.88-7.46.56-15.01.8-22.46-.04-13.37-1.5-26.92-7.31-34.2-19.13-4.01-6.51-14.31-.54-10.28,6.01,13.74,22.31,40.87,26.79,65.07,25.19,11.7-.77,25.38-1.45,34.42-9.95,8.34-7.83,9.57-19.99,8.64-30.77-1.01-11.73-3.96-24.22-12.9-32.55-8.42-7.84-19.83-10.61-30.7-13.19-6.93-1.65-13.86-3.29-20.79-4.94-5.8-1.38-13.46-2.06-18.56-5.4-8.96-5.86-.07-20.86,5.3-26.18,19.46-19.28,48.77-6.93,58.82,15.61,3.12,6.98,13.38.94,10.28-6.01h0Z"/>
    </g>
  </g>
</svg>